<svg width="36" height="36" viewBox="0 0 36 36" fill="none" xmlns="http://www.w3.org/2000/svg">
<rect x="0.5" y="0.5" width="35" height="35" rx="7.5" fill="#EDF4FF"/>
<path d="M21.2879 14.1635C21.2879 15.9796 19.8156 17.4519 17.9994 17.4519C16.1833 17.4519 14.711 15.9796 14.711 14.1635C14.711 12.3473 16.1833 10.875 17.9994 10.875C19.8156 10.875 21.2879 12.3473 21.2879 14.1635Z" stroke="#0E6FFF"/>
<path d="M17.9994 25.125C21.2569 25.125 23.1337 24.2848 24.0043 23.7439C24.4117 23.4909 24.6124 23.0249 24.571 22.5422C24.5144 21.883 24.2841 21.2246 24.0496 20.7023C23.7416 20.0166 23.0288 19.6442 22.2771 19.6442H13.7217C12.97 19.6442 12.2572 20.0166 11.9493 20.7023C11.7148 21.2245 11.4844 21.883 11.4278 22.5422C11.3864 23.0249 11.5872 23.4909 11.9946 23.7439C12.8652 24.2848 14.7419 25.125 17.9994 25.125Z" stroke="#0E6FFF"/>
<rect x="0.5" y="0.5" width="35" height="35" rx="7.5" stroke="#EDF4FF"/>
</svg>
